<?xml version="1.0" encoding="UTF-8" standalone="no"?>
<svg
   width="3.3866668cm"
   height="3.3866668cm"
   version="1.1"
   viewBox="0 0 64.000002 64.000002"
   id="svg13595"
   sodipodi:docname="arch-update-cachyos.svg"
   inkscape:version="1.4 (e7c3feb100, 2024-10-09)"
   xmlns:inkscape="http://www.inkscape.org/namespaces/inkscape"
   xmlns:sodipodi="http://sodipodi.sourceforge.net/DTD/sodipodi-0.dtd"
   xmlns:xlink="http://www.w3.org/1999/xlink"
   xmlns="http://www.w3.org/2000/svg"
   xmlns:svg="http://www.w3.org/2000/svg">
  <defs
     id="defs13599">
    <linearGradient
       inkscape:collect="always"
       xlink:href="#linearGradient4353"
       id="linearGradient5185"
       x1="994.80933"
       y1="1533.2783"
       x2="982.34351"
       y2="1556.7653"
       gradientUnits="userSpaceOnUse"
       gradientTransform="matrix(1.8798364,0,0,1.8798364,-1461.3663,-2735.8963)" />
    <linearGradient
       inkscape:collect="always"
       id="linearGradient4353">
      <stop
         style="stop-color:#020202;stop-opacity:1;"
         offset="0"
         id="stop4349" />
      <stop
         style="stop-color:#020202;stop-opacity:0;"
         offset="1"
         id="stop4351" />
    </linearGradient>
    <linearGradient
       inkscape:collect="always"
       xlink:href="#linearGradient4353"
       id="linearGradient9102"
       x1="1031.1788"
       y1="1597.9056"
       x2="1018.4292"
       y2="1574.7378"
       gradientUnits="userSpaceOnUse"
       gradientTransform="matrix(1.8798364,0,0,1.8798364,-1475.8928,-2775.7298)" />
    <linearGradient
       inkscape:collect="always"
       xlink:href="#linearGradient4353"
       id="linearGradient11890"
       x1="940.43298"
       y1="1612.4667"
       x2="930.58917"
       y2="1594.4696"
       gradientUnits="userSpaceOnUse"
       gradientTransform="matrix(1.8798364,0,0,1.8798364,-1461.3663,-2735.8963)" />
    <linearGradient
       inkscape:collect="always"
       xlink:href="#linearGradient4353"
       id="linearGradient11670"
       x1="965.60468"
       y1="1571.4271"
       x2="951.66113"
       y2="1571.345"
       gradientUnits="userSpaceOnUse"
       gradientTransform="matrix(1.8798364,0,0,1.8798364,-1461.3663,-2735.8963)" />
    <linearGradient
       inkscape:collect="always"
       xlink:href="#linearGradient4353"
       id="linearGradient13770"
       x1="946.23389"
       y1="1655.8641"
       x2="961.37311"
       y2="1655.8458"
       gradientUnits="userSpaceOnUse"
       gradientTransform="matrix(1.8798364,0,0,1.8798364,-1461.3663,-2735.8963)" />
    <linearGradient
       inkscape:collect="always"
       xlink:href="#linearGradient4353"
       id="linearGradient12421"
       x1="936.33533"
       y1="1628.7738"
       x2="933.3775"
       y2="1622.9775"
       gradientUnits="userSpaceOnUse"
       gradientTransform="matrix(1.8798364,0,0,1.8798364,-1461.3663,-2735.8963)" />
    <linearGradient
       inkscape:collect="always"
       xlink:href="#linearGradient4353"
       id="linearGradient13391"
       x1="950.3302"
       y1="1618.6165"
       x2="941.97058"
       y2="1645.7675"
       gradientUnits="userSpaceOnUse"
       gradientTransform="matrix(1.8798364,0,0,1.8798364,-1461.3663,-2735.8963)" />
    <linearGradient
       inkscape:collect="always"
       xlink:href="#linearGradient4353"
       id="linearGradient13599"
       x1="1008.2007"
       y1="1681.3291"
       x2="1015.7307"
       y2="1668.3738"
       gradientUnits="userSpaceOnUse"
       gradientTransform="matrix(1.8798364,0,0,1.8798364,-1461.3663,-2735.8963)" />
    <linearGradient
       inkscape:collect="always"
       xlink:href="#linearGradient18299"
       id="linearGradient18175"
       x1="1148.342"
       y1="1585.5081"
       x2="1145.4373"
       y2="1629.9749"
       gradientUnits="userSpaceOnUse"
       gradientTransform="matrix(1.149118,0,0,1.149118,-688.72735,-1522.6311)" />
    <linearGradient
       inkscape:collect="always"
       id="linearGradient18299">
      <stop
         style="stop-color:#008066;stop-opacity:0"
         offset="0"
         id="stop18295" />
      <stop
         style="stop-color:#00ffcc;stop-opacity:1"
         offset="1"
         id="stop18297" />
    </linearGradient>
    <linearGradient
       inkscape:collect="always"
       xlink:href="#linearGradient18299"
       id="linearGradient18632"
       gradientUnits="userSpaceOnUse"
       gradientTransform="matrix(0.87237591,0,0,0.87237591,-453.21965,-1141.1036)"
       x1="1148.342"
       y1="1585.5081"
       x2="1145.4373"
       y2="1629.9749" />
    <linearGradient
       inkscape:collect="always"
       xlink:href="#linearGradient18299"
       id="linearGradient18659"
       gradientUnits="userSpaceOnUse"
       gradientTransform="matrix(0.44920702,0,0,0.44920702,64.088025,-548.51323)"
       x1="1148.342"
       y1="1585.5081"
       x2="1145.4373"
       y2="1629.9749" />
  </defs>
  <sodipodi:namedview
     id="namedview13597"
     pagecolor="#ffffff"
     bordercolor="#666666"
     borderopacity="1.0"
     inkscape:showpageshadow="2"
     inkscape:pageopacity="0.0"
     inkscape:pagecheckerboard="0"
     inkscape:deskcolor="#d1d1d1"
     showgrid="false"
     inkscape:zoom="8.1562497"
     inkscape:cx="92.812263"
     inkscape:cy="73.072799"
     inkscape:window-width="3440"
     inkscape:window-height="1412"
     inkscape:window-x="0"
     inkscape:window-y="0"
     inkscape:window-maximized="1"
     inkscape:current-layer="svg13595"
     inkscape:document-units="cm" />
  <g
     id="g3823"
     transform="matrix(0.14586725,0,0,0.14586725,-33.936112,-11.122661)">
    <path
       style="fill:#ffffff;fill-opacity:1;stroke:none;stroke-width:0.497373px;stroke-linecap:butt;stroke-linejoin:miter;stroke-opacity:1"
       d="M 340.70181,142.33354 H 527.16034 L 479.95858,224.0895 H 378.83956 l -42.13335,72.97713 42.72023,73.99374 h 197.24578 l -48.40146,83.83394 H 336.69907 L 244.27316,294.80782 332.75762,141.54814 Z"
       id="path3295-6-2-7-3" />
    <path
       style="fill:#00aa88;stroke:none;stroke-width:0.497373px;stroke-linecap:butt;stroke-linejoin:miter;stroke-opacity:1"
       d="m 332.75762,141.54814 147.20096,82.54136 47.20176,-81.75596 z"
       id="path6337"
       sodipodi:nodetypes="cccc" />
    <path
       style="fill:#00aa88;stroke:none;stroke-width:0.497373px;stroke-linecap:butt;stroke-linejoin:miter;stroke-opacity:1"
       d="m 379.42644,371.06037 -42.72737,83.83394 h 191.57169 l 48.40146,-83.83394 z"
       id="path6372" />
    <path
       style="fill:#00ccff;stroke:none;stroke-width:0.497373px;stroke-linecap:butt;stroke-linejoin:miter;stroke-opacity:1"
       d="M 332.75762,141.54814 479.95858,224.0895 H 378.83956 l -42.13335,72.97713 42.72023,73.99374 -42.72737,83.83394 -92.42591,-160.08649 88.48446,-153.25968"
       id="path6473" />
    <path
       style="fill:url(#linearGradient5185);fill-opacity:1;stroke:none;stroke-width:0.497373px;stroke-linecap:butt;stroke-linejoin:miter;stroke-opacity:1"
       d="M 479.95858,224.0895 332.75762,141.54814 321.5632,161.7389 433.15254,223.62048 Z"
       id="path5111" />
    <path
       style="fill:url(#linearGradient9102);fill-opacity:1;stroke:none;stroke-width:0.497373px;stroke-linecap:butt;stroke-linejoin:miter;stroke-opacity:1"
       d="m 375.85512,218.12064 148.32079,-81.75596 -47.20175,81.75596 z"
       id="path8399-8" />
    <path
       style="fill:#00aa88;fill-opacity:1;stroke:none;stroke-width:0.497373px;stroke-linecap:butt;stroke-linejoin:miter;stroke-opacity:1"
       d="M 378.83956,224.0895 527.16034,142.33354 479.95858,224.0895 Z"
       id="path8399" />
    <path
       style="fill:#00aa88;stroke:none;stroke-width:0.497373px;stroke-linecap:butt;stroke-linejoin:miter;stroke-opacity:1"
       d="m 244.27316,294.80782 134.5664,-70.71832 -42.13353,72.97713 z"
       id="path8568" />
    <path
       style="fill:url(#linearGradient11890);fill-opacity:1;stroke:none;stroke-width:0.497373px;stroke-linecap:butt;stroke-linejoin:miter;stroke-opacity:1"
       d="m 244.27316,294.80782 134.5664,-70.71832 -9.0907,-14.22153 -115.97106,67.22709 z"
       id="path11882" />
    <path
       style="fill:#00aa88;fill-opacity:1;stroke:none;stroke-width:0.497373px;stroke-linecap:butt;stroke-linejoin:miter;stroke-opacity:1"
       d="m 378.83956,224.0895 -46.08194,-82.54136 3.94841,155.51849 z"
       id="path8467" />
    <path
       style="fill:#00ccff;fill-opacity:1;stroke:none;stroke-width:0.497373px;stroke-linecap:butt;stroke-linejoin:miter;stroke-opacity:1"
       d="m 379.42606,371.06037 148.8447,83.83394 48.40146,-83.83394 z"
       id="path8916" />
    <path
       style="fill:url(#linearGradient11670);fill-opacity:1;stroke:none;stroke-width:0.497373px;stroke-linecap:butt;stroke-linejoin:miter;stroke-opacity:1"
       d="m 332.75762,141.54814 -11.19442,20.19076 1.07394,134.6664 14.06907,0.66133 z"
       id="path11629" />
    <path
       style="fill:#00aa88;fill-opacity:1;stroke:none;stroke-width:0.497373px;stroke-linecap:butt;stroke-linejoin:miter;stroke-opacity:1"
       d="m 336.70603,297.06663 -70.56831,35.38867 70.56135,122.43901 z"
       id="path12053" />
    <path
       style="fill:url(#linearGradient13770);fill-opacity:1;stroke:none;stroke-width:0.497373px;stroke-linecap:butt;stroke-linejoin:miter;stroke-opacity:1"
       d="m 336.70603,297.06663 v 157.82768 l 17.29054,-33.74438 1.33544,-92.51916 z"
       id="path13729" />
    <path
       style="fill:url(#linearGradient12421);fill-opacity:1;stroke:none;stroke-width:0.497373px;stroke-linecap:butt;stroke-linejoin:miter;stroke-opacity:1"
       d="m 266.13772,332.4553 70.56831,-35.38867 -14.06889,-0.66133 -61.22739,29.25326 z"
       id="path12347" />
    <path
       style="fill:#00aa88;fill-opacity:1;stroke:none;stroke-width:0.497373px;stroke-linecap:butt;stroke-linejoin:miter;stroke-opacity:1"
       d="m 266.13772,332.4553 113.28872,38.60507 -42.72041,-73.99374 z"
       id="path13027" />
    <path
       style="fill:url(#linearGradient13391);fill-opacity:1;stroke:none;stroke-width:0.497373px;stroke-linecap:butt;stroke-linejoin:miter;stroke-opacity:1"
       d="m 379.42644,371.06037 -113.28872,-38.60507 12.30147,21.24102 93.10152,33.81657 z"
       id="path13350" />
    <path
       style="fill:url(#linearGradient13599);fill-opacity:1;stroke:none;stroke-width:0.497373px;stroke-linecap:butt;stroke-linejoin:miter;stroke-opacity:1"
       d="m 379.42644,371.06037 148.84432,83.83394 17.83946,-31.7525 -95.79666,-52.89916 z"
       id="path13525" />
    <circle
       style="fill:#00ccff;fill-opacity:1;stroke:none;stroke-width:0.304038;stroke-opacity:1"
       id="path14992-9"
       cx="627.52777"
       cy="339.7016"
       r="31.819033" />
    <circle
       style="fill:url(#linearGradient18175);fill-opacity:1;stroke:none;stroke-width:0.304038;stroke-opacity:1"
       id="path14992-9-0"
       cx="627.96423"
       cy="339.37531"
       r="31.819033" />
    <circle
       style="fill:#00ccff;fill-opacity:1;stroke:none;stroke-width:0.230816;stroke-opacity:1"
       id="path14992-9-7"
       cx="546.04193"
       cy="272.72369"
       r="24.156057" />
    <circle
       style="fill:url(#linearGradient18632);fill-opacity:1;stroke:none;stroke-width:0.230816;stroke-opacity:1"
       id="path14992-9-0-5"
       cx="546.37329"
       cy="272.47589"
       r="24.156057" />
    <circle
       style="fill:#00ccff;fill-opacity:1;stroke:none;stroke-width:0.118852;stroke-opacity:1"
       id="path14992-9-28"
       cx="578.63159"
       cy="179.49995"
       r="12.438524" />
    <circle
       style="fill:url(#linearGradient18659);fill-opacity:1;stroke:none;stroke-width:0.118852;stroke-opacity:1"
       id="path14992-9-0-9"
       cx="578.80206"
       cy="179.37236"
       r="12.438524" />
  </g>
  <path
     class="cls-1"
     d="m 18.771251,42.599781 c 0,-0.04704 -0.724419,0.63854 -0.724419,0.59149 h -4.220335 l 7.324079,-8.583312 7.417136,8.583312 h -4.220325 c 0,0.04706 -0.923821,-0.638539 -0.923821,-0.59149 0,8.186746 6.254047,14.807388 13.963623,14.807388 3.489214,0 6.692675,-1.371179 9.118537,-3.629589 l 3.103761,3.723689 c -3.296494,3.038105 -7.563333,4.852901 -12.21567,4.852901 -10.28161,0 -18.615915,-8.872335 -18.615915,-19.761111 z"
     id="path4"
     style="font-size:140.705px;line-height:1.25;letter-spacing:0px;word-spacing:0px;fill:#dfdfdf;stroke:#000000;stroke-width:0.732339;stroke-dasharray:none;stroke-opacity:1" />
  <path
     style="font-size:140.705px;line-height:1.25;letter-spacing:0px;word-spacing:0px;fill:#dfdfdf;fill-opacity:1;stroke:#000000;stroke-width:0.732339;stroke-dasharray:none"
     d="M 54.264059,48.715278 C 53.86798,48.25832 52.22864,46.361107 50.621065,44.499247 l -2.922864,-3.385203 2.053984,-0.01871 2.053973,-0.01871 0.439704,0.292797 c 0.241835,0.16104 0.460056,0.271991 0.484946,0.246559 0.0826,-0.08442 -0.117755,-2.180845 -0.292172,-3.057084 -0.771424,-3.875413 -2.981445,-7.273434 -6.129735,-9.424772 -4.115041,-2.811963 -9.344789,-3.120358 -13.751016,-0.810884 -0.817713,0.428596 -1.604464,0.955187 -2.366178,1.583752 -0.310856,0.256513 -0.575199,0.455394 -0.587433,0.441956 -0.01225,-0.01342 -0.696001,-0.833645 -1.519477,-1.822684 l -1.497238,-1.798248 0.299614,-0.273736 c 0.164785,-0.150554 0.594578,-0.501681 0.955093,-0.780278 5.529766,-4.2733 12.811081,-4.964906 18.974374,-1.802254 6.084767,3.122353 10.178001,9.652527 10.465197,16.695751 0.02413,0.591483 0.0629,1.075426 0.08617,1.075426 0.02327,0 0.192614,-0.126935 0.376309,-0.28208 l 0.333983,-0.282078 h 2.075334 2.075328 l -0.175586,0.19393 c -0.09657,0.106656 -1.457993,1.701286 -3.025386,3.543615 -2.878525,3.383455 -3.724553,4.374364 -3.930714,4.603889 -0.106913,0.119029 -0.152337,0.0806 -0.833217,-0.704941 z"
     id="path2" />
</svg>
